HIERARCHY
ROOT hip
{
  OFFSET 0 0 0
  CHANNELS 6 Xposition Yposition Zposition Zrotation Yrotation Xrotation
  JOINT abdomen
  {
    OFFSET 0 20.6881 -0.73152
    CHANNELS 3 Zrotation Xrotation Yrotation
    JOINT chest
    {
      OFFSET 0 11.7043 -0.48768
      CHANNELS 3 Zrotation Xrotation Yrotation
      JOINT neck
      {
        OFFSET 0 22.1894 -2.19456
        CHANNELS 3 Zrotation Xrotation Yrotation
        JOINT head
        {
          OFFSET -0.24384 7.07133 1.2192
          CHANNELS 3 Zrotation Xrotation Yrotation
          JOINT leftEye
          {
            OFFSET 4.14528 8.04674 8.04672
            CHANNELS 3 Zrotation Xrotation Yrotation
            End Site
            {
              OFFSET 1 0 0
            }
          }
          JOINT rightEye
          {
            OFFSET -3.6576 8.04674 8.04672
            CHANNELS 3 Zrotation Xrotation Yrotation
            End Site
            {
              OFFSET 1 0 0
            }
          }
        }
      }
      JOINT rCollar
      {
        OFFSET -2.68224 19.2634 -4.8768
        CHANNELS 3 Zrotation Xrotation Yrotation
        JOINT rShldr
        {
          OFFSET -8.77824 -1.95073 1.46304
          CHANNELS 3 Zrotation Xrotation Yrotation
          JOINT rForeArm
          {
            OFFSET -28.1742 -1.7115 0.48768
            CHANNELS 3 Zrotation Xrotation Yrotation
            JOINT rHand
            {
              OFFSET -22.5879 0.773209 7.07136
              CHANNELS 3 Zrotation Xrotation Yrotation
              JOINT rThumb1
              {
                OFFSET -1.2192 -0.487915 3.41376
                CHANNELS 3 Zrotation Xrotation Yrotation
                JOINT rThumb2
                {
                  OFFSET -3.37035 -0.52449 3.41376
                  CHANNELS 3 Zrotation Xrotation Yrotation
                  End Site
                  {
                    OFFSET -1.78271 -1.18214 1.43049
                  }
                }
              }
              JOINT rIndex1
              {
                OFFSET -7.75947 0.938293 5.60832
                CHANNELS 3 Zrotation Xrotation Yrotation
                JOINT rIndex2
                {
                  OFFSET -2.54057 -0.884171 1.56538
                  CHANNELS 3 Zrotation Xrotation Yrotation
                  End Site
                  {
                    OFFSET -1.62519 -0.234802 1.16502
                  }
                }
              }
              JOINT rMid1
              {
                OFFSET -8.24714 1.18213 3.41376
                CHANNELS 3 Zrotation Xrotation Yrotation
                JOINT rMid2
                {
                  OFFSET -3.10165 -0.590103 1.0647
                  CHANNELS 3 Zrotation Xrotation Yrotation
                  End Site
                  {
                    OFFSET -2.48547 -0.328903 0.83742
                  }
                }
              }
              JOINT rRing1
              {
                OFFSET -8.82822 0.546677 1.51678
                CHANNELS 3 Zrotation Xrotation Yrotation
                JOINT rRing2
                {
                  OFFSET -2.60934 -0.819778 -0.0198488
                  CHANNELS 3 Zrotation Xrotation Yrotation
                  End Site
                  {
                    OFFSET -2.33842 -0.294052 0.168128
                  }
                }
              }
              JOINT rPinky1
              {
                OFFSET -8.27202 -0.0477905 -0.4584
                CHANNELS 3 Zrotation Xrotation Yrotation
                JOINT rPinky2
                {
                  OFFSET -1.82734 -0.647385 -0.700984
                  CHANNELS 3 Zrotation Xrotation Yrotation
                  End Site
                  {
                    OFFSET -1.69225 -0.51767 -0.607171
                  }
                }
              }
            }
          }
        }
      }
      JOINT lCollar
      {
        OFFSET 2.68224 19.2634 -4.8768
        CHANNELS 3 Zrotation Xrotation Yrotation
        JOINT lShldr
        {
          OFFSET 8.77824 -1.95073 1.46304
          CHANNELS 3 Zrotation Xrotation Yrotation
          JOINT lForeArm
          {
            OFFSET 28.1742 -1.7115 0.48768
            CHANNELS 3 Zrotation Xrotation Yrotation
            JOINT lHand
            {
              OFFSET 22.5879 0.773209 7.07136
              CHANNELS 3 Zrotation Xrotation Yrotation
              JOINT lThumb1
              {
                OFFSET 1.2192 -0.487915 3.41376
                CHANNELS 3 Zrotation Xrotation Yrotation
                JOINT lThumb2
                {
                  OFFSET 3.37035 -0.52449 3.41376
                  CHANNELS 3 Zrotation Xrotation Yrotation
                  End Site
                  {
                    OFFSET 1.78271 -1.18214 1.43049
                  }
                }
              }
              JOINT lIndex1
              {
                OFFSET 7.75947 0.938293 5.60832
                CHANNELS 3 Zrotation Xrotation Yrotation
                JOINT lIndex2
                {
                  OFFSET 2.54057 -0.884171 1.56538
                  CHANNELS 3 Zrotation Xrotation Yrotation
                  End Site
                  {
                    OFFSET 1.62519 -0.234802 1.16502
                  }
                }
              }
              JOINT lMid1
              {
                OFFSET 8.24714 1.18213 3.41376
                CHANNELS 3 Zrotation Xrotation Yrotation
                JOINT lMid2
                {
                  OFFSET 3.10165 -0.590103 1.0647
                  CHANNELS 3 Zrotation Xrotation Yrotation
                  End Site
                  {
                    OFFSET 2.48547 -0.328903 0.83742
                  }
                }
              }
              JOINT lRing1
              {
                OFFSET 8.82822 0.546677 1.51678
                CHANNELS 3 Zrotation Xrotation Yrotation
                JOINT lRing2
                {
                  OFFSET 2.60934 -0.819778 -0.0198488
                  CHANNELS 3 Zrotation Xrotation Yrotation
                  End Site
                  {
                    OFFSET 2.33842 -0.294052 0.168128
                  }
                }
              }
              JOINT lPinky1
              {
                OFFSET 8.27202 -0.0477905 -0.4584
                CHANNELS 3 Zrotation Xrotation Yrotation
                JOINT lPinky2
                {
                  OFFSET 1.82734 -0.647385 -0.700984
                  CHANNELS 3 Zrotation Xrotation Yrotation
                  End Site
                  {
                    OFFSET 1.69225 -0.51767 -0.607171
                  }
                }
              }
            }
          }
        }
      }
    }
  }
  JOINT rButtock
  {
    OFFSET -8.77824 4.35084 1.2192
    CHANNELS 3 Zrotation Xrotation Yrotation
    JOINT rThigh
    {
      OFFSET 0 -1.70687 -2.19456
      CHANNELS 3 Zrotation Xrotation Yrotation
      JOINT rShin
      {
        OFFSET 0 -36.8199 0.73152
        CHANNELS 3 Zrotation Xrotation Yrotation
        JOINT rFoot
        {
          OFFSET 0.73152 -45.1104 -5.12064
          CHANNELS 3 Zrotation Xrotation Yrotation
          End Site
          {
            OFFSET -1.1221 -3.69964 12.103
          }
        }
      }
    }
  }
  JOINT lButtock
  {
    OFFSET 8.77824 4.35084 1.2192
    CHANNELS 3 Zrotation Xrotation Yrotation
    JOINT lThigh
    {
      OFFSET 0 -1.70687 -2.19456
      CHANNELS 3 Zrotation Xrotation Yrotation
      JOINT lShin
      {
        OFFSET 0 -36.8199 0.73152
        CHANNELS 3 Zrotation Xrotation Yrotation
        JOINT lFoot
        {
          OFFSET -0.73152 -45.1104 -5.12064
          CHANNELS 3 Zrotation Xrotation Yrotation
          End Site
          {
            OFFSET 1.1221 -3.69964 12.103
          }
        }
      }
    }
  }
}
MOTION
Frames:	8
Frame Time:	0.00833333
51.1009 112.891 59.3642 -181.16 10.2841 -168.772 -2.88806 11.9073 12.0367 3.34988 -0.718988 3.37837 -3.54511 9.63604 -0.414219 5.04925 -3.41234 -2.45547 -0.0 0.0 0.0 -0.0 0.0 0.0 2.98625e-15 -3.63751e-14 -3.40263e-14 72.5161 24.0802 27.6119 -15.8878 -8.57852 29.446 -0.00504197 1.86661 0.262472 -2.62009e-10 2.33701e-10 7.02746e-10 -4.52503e-10 4.04137e-10 1.21703e-09 -2.62004e-10 2.33703e-10 7.02726e-10 7.73091 5.47488 0.417314 -2.6201e-10 2.337e-10 7.0274e-10 2.90554 0.965183 0.102902 -2.62008e-10 2.337e-10 7.02743e-10 10.2786 0.731801 0.0259123 -2.62022e-10 2.33705e-10 7.02747e-10 2.22167 -0.733487 -0.20892 2.95267e-15 -3.63803e-14 -3.41444e-14 -80.0019 8.16852 0.395694 7.01181 -2.51152 -12.3081 1.88911 35.8303 -5.8268 -5.38597e-10 8.7696e-11 6.20881e-10 -9.10418e-10 1.40516e-10 1.09087e-09 -5.38604e-10 8.76939e-11 6.20896e-10 -7.73091 5.47488 -0.417314 -5.38596e-10 8.76962e-11 6.2089e-10 -2.90554 0.965183 -0.102902 -5.38603e-10 8.76926e-11 6.20885e-10 -10.2786 0.731801 -0.0259123 -5.38595e-10 8.76928e-11 6.20877e-10 -2.22167 -0.733487 0.20892 -2.03217e-16 0.0 -3.88251e-19 2.52231 -5.54361 5.17971 0.259915 24.1306 1.82554 2.77987 -25.0868 8.71248 2.03217e-16 0.0 3.88251e-19 6.18738 -65.1555 2.53664 0.634161 53.485 -1.66768 3.67365 -16.4575 8.26039
50.818 113.49 57.94 -181.244 9.9795 -168.252 -3.3077 11.6905 11.7631 3.46707 -0.705618 3.29203 -3.48091 9.41604 -0.477392 5.15073 -3.42394 -2.5264 -0.0 0.0 0.0 -0.0 0.0 0.0 -9.93398e-15 -1.42249e-13 -2.2519e-14 73.0879 23.1939 26.1472 -15.6974 -8.40436 29.0463 -0.00570425 1.99566 0.280634 3.69886e-10 -1.90622e-09 9.98523e-10 6.44635e-10 -3.29948e-09 1.72373e-09 3.69889e-10 -1.90622e-09 9.98501e-10 7.73091 5.47488 0.417314 3.69884e-10 -1.90622e-09 9.98518e-10 2.90554 0.965183 0.102902 3.69891e-10 -1.90622e-09 9.98519e-10 10.2786 0.731801 0.0259123 3.6987e-10 -1.90621e-09 9.98523e-10 2.22167 -0.733487 -0.20892 -9.95749e-15 -1.42262e-13 -2.26215e-14 -79.9612 8.69098 -0.38657 7.06086 -2.53513 -12.3971 1.87608 35.7233 -5.80405 2.47909e-09 -8.75957e-11 -1.13541e-09 4.24791e-09 -1.44892e-10 -2.02472e-09 2.47908e-09 -8.75975e-11 -1.13539e-09 -7.73091 5.47488 -0.417314 2.47909e-09 -8.75988e-11 -1.1354e-09 -2.90554 0.965183 -0.102902 2.47908e-09 -8.76005e-11 -1.1354e-09 -10.2786 0.731801 -0.0259123 2.47909e-09 -8.76014e-11 -1.13541e-09 -2.22167 -0.733487 0.20892 -2.03217e-16 0.0 -3.88251e-19 1.93998 -5.52326 5.22077 0.255713 24.434 1.78295 2.39873 -22.2419 8.80226 2.03217e-16 0.0 3.88251e-19 3.81497 -64.4769 0.429614 0.626794 53.2808 -1.65463 3.53738 -17.9834 7.41741
50.493 114.182 56.4851 -181.492 9.7077 -167.829 -3.71597 11.4922 11.4286 3.62763 -0.676651 3.18914 -3.59453 9.25695 -0.504571 5.39587 -3.50418 -2.50084 -0.0 0.0 0.0 -0.0 0.0 0.0 -2.32509e-14 -1.71742e-13 -1.38652e-14 73.6826 22.1666 24.646 -15.4375 -8.17495 28.4939 -0.00654664 2.30959 0.324769 7.08601e-10 -2.88501e-09 9.47156e-10 1.23153e-09 -4.99328e-09 1.63263e-09 7.08602e-10 -2.885e-09 9.47134e-10 7.73091 5.47488 0.417314 7.08599e-10 -2.88501e-09 9.47153e-10 2.90554 0.965183 0.102902 7.08608e-10 -2.88501e-09 9.47152e-10 10.2786 0.731801 0.0259123 7.08583e-10 -2.885e-09 9.47156e-10 2.22167 -0.733487 -0.20892 -2.32661e-14 -1.71758e-13 -1.39646e-14 -79.9455 9.48117 -1.17348 7.20575 -2.60866 -12.6558 1.80046 35.1528 -5.67971 3.8956e-09 -1.9215e-10 -1.88215e-09 6.66973e-09 -3.15101e-10 -3.35508e-09 3.89558e-09 -1.92152e-10 -1.88214e-09 -7.73091 5.47488 -0.417314 3.89559e-09 -1.92155e-10 -1.88214e-09 -2.90554 0.965183 -0.102902 3.89559e-09 -1.92155e-10 -1.88214e-09 -10.2786 0.731801 -0.0259123 3.8956e-09 -1.92157e-10 -1.88215e-09 -2.22167 -0.733487 0.20892 -2.03217e-16 0.0 -3.88251e-19 1.40251 -5.87654 5.13353 0.235613 25.1873 1.73575 1.90244 -18.9683 8.72567 2.03217e-16 0.0 3.88251e-19 2.00432 -63.5929 -1.07006 0.608444 52.7782 -1.61944 3.36015 -19.2844 6.64834
50.1918 114.944 55.0761 -181.708 9.5989 -167.276 -4.10697 11.3061 11.0048 3.8753 -0.625635 3.06154 -4.03292 9.18435 -0.483757 5.90472 -3.70075 -2.32857 -0.0 0.0 0.0 -0.0 0.0 0.0 -3.73141e-14 -7.57306e-14 -9.91516e-15 74.2654 20.9616 23.124 -15.0744 -7.86027 27.7301 -0.00957981 2.837 0.399072 5.51258e-10 -2.01249e-09 2.70616e-10 9.55075e-10 -3.48253e-09 4.64769e-10 5.5126e-10 -2.01249e-09 2.70596e-10 7.73091 5.47488 0.417314 5.51256e-10 -2.01249e-09 2.70614e-10 2.90554 0.965183 0.102902 5.51266e-10 -2.01249e-09 2.70613e-10 10.2786 0.731801 0.0259123 5.51243e-10 -2.01248e-09 2.70618e-10 2.22167 -0.733487 -0.20892 -3.73191e-14 -7.57431e-14 -1.00301e-14 -80.0094 10.5813 -1.95939 7.4582 -2.73501 -13.1131 1.65588 33.9722 -5.43075 2.74099e-09 -2.05144e-10 -1.04129e-09 4.69641e-09 -3.37674e-10 -1.87746e-09 2.74098e-09 -2.05146e-10 -1.04128e-09 -7.73091 5.47488 -0.417314 2.74098e-09 -2.0515e-10 -1.04129e-09 -2.90554 0.965183 -0.102902 2.74098e-09 -2.05149e-10 -1.04129e-09 -10.2786 0.731801 -0.0259123 2.74099e-09 -2.05152e-10 -1.0413e-09 -2.22167 -0.733487 0.20892 -2.03217e-16 0.0 -3.88251e-19 0.87494 -6.60301 4.85965 0.203116 26.3481 1.6791 1.30935 -14.9878 8.5517 2.03217e-16 0.0 3.88251e-19 0.934436 -62.4785 -1.73703 0.579449 51.8845 -1.55943 3.16511 -20.3093 5.98903
49.9309 115.77 53.6908 -181.796 9.4694 -166.67 -4.48185 11.1286 10.4873 4.19691 -0.557313 2.90829 -4.69963 9.15353 -0.429906 6.60136 -3.95447 -2.05546 -0.0 0.0 0.0 -0.0 0.0 0.0 -5.21807e-14 9.85995e-14 -9.90817e-15 74.8016 19.5899 21.5492 -14.6302 -7.48057 26.8167 -0.0157228 3.52143 0.495684 1.13201e-10 -3.97546e-11 -8.36834e-10 1.89694e-10 -6.72273e-11 -1.44572e-09 1.13205e-10 -3.9753e-11 -8.36851e-10 7.73091 5.47488 0.417314 1.13199e-10 -3.97541e-11 -8.36834e-10 2.90554 0.965183 0.102902 1.13207e-10 -3.97545e-11 -8.36836e-10 10.2786 0.731801 0.0259123 1.1319e-10 -3.97502e-11 -8.3683e-10 2.22167 -0.733487 -0.20892 -5.21753e-14 9.8595e-14 -1.0051e-14 -80.1157 11.9156 -2.78116 7.7894 -2.90063 -13.72 1.4758 32.3303 -5.10016 6.98266e-11 -1.71425e-10 7.31228e-10 1.30184e-10 -2.85082e-10 1.24777e-09 6.98115e-11 -1.71427e-10 7.31227e-10 -7.73091 5.47488 -0.417314 6.98188e-11 -1.7143e-10 7.31224e-10 -2.90554 0.965183 -0.102902 6.98144e-11 -1.71429e-10 7.31234e-10 -10.2786 0.731801 -0.0259123 6.98284e-11 -1.71432e-10 7.31219e-10 -2.22167 -0.733487 0.20892 -2.03217e-16 0.0 -3.88251e-19 0.350223 -7.63114 4.44416 0.16331 27.8226 1.61318 0.655129 -10.4075 8.3158 2.03217e-16 0.0 3.88251e-19 0.286878 -61.184 -1.92741 0.544556 50.6458 -1.48058 2.91362 -21.0768 5.31211
49.6808 116.626 52.3332 -181.81 9.2314 -166.126 -4.85427 10.9752 9.9433 4.50438 -0.482616 2.74849 -5.33539 9.14048 -0.358949 7.27593 -4.20247 -1.75998 -0.0 0.0 0.0 -0.0 0.0 0.0 -6.70213e-14 2.7611e-13 -1.02522e-14 75.3404 18.1096 19.9371 -14.1471 -7.07675 25.8431 -0.0242117 4.34082 0.611435 -3.10605e-10 2.04362e-09 -1.89532e-09 -5.50937e-10 3.53944e-09 -3.27173e-09 -3.10599e-10 2.04362e-09 -1.89534e-09 7.73091 5.47488 0.417314 -3.10606e-10 2.04362e-09 -1.89532e-09 2.90554 0.965183 0.102902 -3.106e-10 2.04362e-09 -1.89532e-09 10.2786 0.731801 0.0259123 -3.10611e-10 2.04362e-09 -1.89532e-09 2.22167 -0.733487 -0.20892 -6.70125e-14 2.76114e-13 -1.04261e-14 -80.1226 13.4423 -3.63616 8.18733 -3.10683 -14.4494 1.2892 30.4419 -4.7367 -2.72645e-09 -1.04209e-10 2.62672e-09 -4.64874e-09 -1.75955e-10 4.58967e-09 -2.72647e-09 -1.04211e-10 2.62671e-09 -7.73091 5.47488 -0.417314 -2.72646e-09 -1.04212e-10 2.6267e-09 -2.90554 0.965183 -0.102902 -2.72646e-09 -1.04211e-10 2.62672e-09 -10.2786 0.731801 -0.0259123 -2.72645e-09 -1.04214e-10 2.6267e-09 -2.22167 -0.733487 0.20892 -2.03217e-16 0.0 -3.88251e-19 -0.116394 -9.01732 3.98448 0.110962 29.7763 1.54839 0.00278029 -5.75537 7.91642 2.03217e-16 0.0 3.88251e-19 -0.245528 -59.7773 -2.01264 0.508904 49.2361 -1.39299 2.63342 -21.6836 4.63929
49.4925 117.489 51.042 -181.542 8.9659 -165.604 -5.23644 10.8622 9.43953 4.70944 -0.412489 2.60119 -5.68093 9.12119 -0.286827 7.71608 -4.3819 -1.52071 -0.0 0.0 0.0 -0.0 0.0 0.0 -8.10065e-14 3.81662e-13 -7.35503e-15 75.9387 16.5822 18.2974 -13.6726 -6.69329 24.8976 -0.0342248 5.27313 0.74321 -4.25194e-10 3.24807e-09 -2.42498e-09 -7.53144e-10 5.62431e-09 -4.18613e-09 -4.25187e-10 3.24807e-09 -2.42499e-09 7.73091 5.47488 0.417314 -4.25195e-10 3.24807e-09 -2.42498e-09 2.90554 0.965183 0.102902 -4.25189e-10 3.24807e-09 -2.42498e-09 10.2786 0.731801 0.0259123 -4.25197e-10 3.24807e-09 -2.42497e-09 2.22167 -0.733487 -0.20892 -8.10084e-14 3.81671e-13 -7.55382e-15 -79.89 15.1197 -4.52216 8.63972 -3.35474 -15.2741 1.11394 28.5227 -4.3805 -4.25641e-09 -1.67106e-11 3.83647e-09 -7.26017e-09 -2.8924e-11 6.71733e-09 -4.25643e-09 -1.67126e-11 3.83646e-09 -7.73091 5.47488 -0.417314 -4.25642e-09 -1.67133e-11 3.83646e-09 -2.90554 0.965183 -0.102902 -4.25642e-09 -1.67128e-11 3.83648e-09 -10.2786 0.731801 -0.0259123 -4.25641e-09 -1.6715e-11 3.83646e-09 -2.22167 -0.733487 0.20892 -2.03217e-16 0.0 -3.88251e-19 -0.464631 -10.8177 3.57886 0.0401403 32.3751 1.49621 -0.56014 -1.55531 7.22581 2.03217e-16 0.0 3.88251e-19 -0.908688 -58.3234 -2.31001 0.475109 47.8292 -1.30435 2.34843 -22.2271 3.99179
49.3344 118.354 49.8264 -181.193 8.6867 -165.124 -5.61051 10.793 9.00146 4.76074 -0.349485 2.47449 -5.59911 9.07033 -0.184158 7.80268 -4.46877 -1.39816 -0.0 0.0 0.0 -0.0 0.0 0.0 -9.99954e-14 3.85513e-13 8.43204e-15 76.6337 14.9912 16.6163 -13.1979 -6.3274 23.9508 -0.0484793 6.31925 0.891758 -3.05101e-11 3.19524e-09 -2.157e-09 -6.91863e-11 5.5322e-09 -3.72566e-09 -3.05029e-11 3.19524e-09 -2.15701e-09 7.73091 5.47488 0.417314 -3.05105e-11 3.19524e-09 -2.157e-09 2.90554 0.965183 0.102902 -3.05034e-11 3.19524e-09 -2.157e-09 10.2786 0.731801 0.0259123 -3.05115e-11 3.19524e-09 -2.15699e-09 2.22167 -0.733487 -0.20892 -1.00036e-13 3.85523e-13 8.21385e-15 -79.3213 17.0868 -5.456 9.16466 -3.65489 -16.2354 0.931936 26.4145 -4.00002 -3.89606e-09 1.21342e-10 4.12894e-09 -6.63427e-09 2.1016e-10 7.21607e-09 -3.89608e-09 1.2134e-10 4.12892e-09 -7.73091 5.47488 -0.417314 -3.89607e-09 1.21339e-10 4.12892e-09 -2.90554 0.965183 -0.102902 -3.89607e-09 1.21339e-10 4.12894e-09 -10.2786 0.731801 -0.0259123 -3.89606e-09 1.21338e-10 4.12892e-09 -2.22167 -0.733487 0.20892 -2.03217e-16 0.0 -3.88251e-19 -0.642874 -13.1532 3.23431 -0.0571621 35.9252 1.45925 -1.0107 2.49122 6.01273 2.03217e-16 0.0 3.88251e-19 -1.69617 -56.8353 -2.87455 0.44345 46.4381 -1.21186 2.04429 -22.6972 3.33647
